<svg xmlns="http://www.w3.org/2000/svg" xmlns:xlink="http://www.w3.org/1999/xlink" version="1.1" width="256" height="256" viewBox="0 0 256 256" xml:space="preserve">

<defs>
</defs>
<g style="stroke: none; stroke-width: 0; stroke-dasharray: none; stroke-linecap: butt; stroke-linejoin: miter; stroke-miterlimit: 10; fill: none; fill-rule: nonzero; opacity: 1;" transform="translate(1.4065934065934016 1.4065934065934016) scale(2.81 2.81)" >
	<path d="M 26.825 50.258 h 53.247 c 2.169 0 3.928 1.758 3.928 3.928 v 14.892 c 0 2.169 -1.758 3.928 -3.928 3.928 H 9.928 C 7.758 73.006 6 71.247 6 69.078 V 54.186 c 0 -2.169 1.758 -3.928 3.928 -3.928 h 5.93 H 26.825 z" style="stroke: none; stroke-width: 1; stroke-dasharray: none; stroke-linecap: butt; stroke-linejoin: miter; stroke-miterlimit: 10; fill: rgb(248,218,127); fill-rule: nonzero; opacity: 1;" transform=" matrix(1 0 0 1 0 0) " stroke-linecap="round" />
	<path d="M 85.072 79.006 H 4.928 C 2.21 79.006 0 76.795 0 74.078 V 49.186 c 0 -2.717 2.21 -4.927 4.928 -4.927 h 10.93 c 0.552 0 1 0.448 1 1 s -0.448 1 -1 1 H 4.928 C 3.313 46.259 2 47.571 2 49.186 v 24.893 c 0 1.614 1.313 2.928 2.928 2.928 h 80.145 c 1.614 0 2.928 -1.313 2.928 -2.928 V 49.186 c 0 -1.614 -1.313 -2.927 -2.928 -2.927 H 26.825 c -0.552 0 -1 -0.448 -1 -1 s 0.448 -1 1 -1 h 58.247 c 2.717 0 4.928 2.21 4.928 4.927 v 24.893 C 90 76.795 87.789 79.006 85.072 79.006 z" style="stroke: none; stroke-width: 1; stroke-dasharray: none; stroke-linecap: butt; stroke-linejoin: miter; stroke-miterlimit: 10; fill: rgb(0,0,0); fill-rule: nonzero; opacity: 1;" transform=" matrix(1 0 0 1 0 0) " stroke-linecap="round" />
	<path d="M 46.967 70.236 h -6.742 c -0.552 0 -1 -0.447 -1 -1 V 54.027 c 0 -0.553 0.448 -1 1 -1 s 1 0.447 1 1 v 14.209 h 5.742 c 0.553 0 1 0.447 1 1 S 47.52 70.236 46.967 70.236 z" style="stroke: none; stroke-width: 1; stroke-dasharray: none; stroke-linecap: butt; stroke-linejoin: miter; stroke-miterlimit: 10; fill: rgb(0,0,0); fill-rule: nonzero; opacity: 1;" transform=" matrix(1 0 0 1 0 0) " stroke-linecap="round" />
	<path d="M 15.579 70.236 h -2.881 c -2.359 0 -4.279 -1.92 -4.279 -4.279 v -8.65 c 0 -2.359 1.92 -4.279 4.279 -4.279 h 2.881 c 2.359 0 4.279 1.92 4.279 4.279 v 8.65 C 19.857 68.316 17.938 70.236 15.579 70.236 z M 12.697 55.027 c -1.257 0 -2.279 1.022 -2.279 2.279 v 8.65 c 0 1.257 1.022 2.279 2.279 2.279 h 2.881 c 1.256 0 2.279 -1.022 2.279 -2.279 v -8.65 c 0 -1.257 -1.022 -2.279 -2.279 -2.279 H 12.697 z" style="stroke: none; stroke-width: 1; stroke-dasharray: none; stroke-linecap: butt; stroke-linejoin: miter; stroke-miterlimit: 10; fill: rgb(0,0,0); fill-rule: nonzero; opacity: 1;" transform=" matrix(1 0 0 1 0 0) " stroke-linecap="round" />
	<path d="M 34.265 70.236 c -0.339 0 -0.664 -0.174 -0.85 -0.473 l -7.59 -12.229 v 11.701 c 0 0.553 -0.448 1 -1 1 s -1 -0.447 -1 -1 V 54.027 c 0 -0.446 0.296 -0.839 0.726 -0.962 c 0.429 -0.12 0.888 0.055 1.124 0.435 l 7.59 12.229 V 54.027 c 0 -0.553 0.448 -1 1 -1 s 1 0.447 1 1 v 15.209 c 0 0.446 -0.296 0.839 -0.726 0.962 C 34.448 70.224 34.356 70.236 34.265 70.236 z" style="stroke: none; stroke-width: 1; stroke-dasharray: none; stroke-linecap: butt; stroke-linejoin: miter; stroke-miterlimit: 10; fill: rgb(0,0,0); fill-rule: nonzero; opacity: 1;" transform=" matrix(1 0 0 1 0 0) " stroke-linecap="round" />
	<path d="M 52.13 70.236 c -0.553 0 -1 -0.447 -1 -1 V 54.027 c 0 -0.553 0.447 -1 1 -1 s 1 0.447 1 1 v 15.209 C 53.13 69.789 52.683 70.236 52.13 70.236 z" style="stroke: none; stroke-width: 1; stroke-dasharray: none; stroke-linecap: butt; stroke-linejoin: miter; stroke-miterlimit: 10; fill: rgb(0,0,0); fill-rule: nonzero; opacity: 1;" transform=" matrix(1 0 0 1 0 0) " stroke-linecap="round" />
	<path d="M 67.88 70.236 c -0.34 0 -0.664 -0.174 -0.85 -0.473 l -7.59 -12.229 v 11.701 c 0 0.553 -0.447 1 -1 1 s -1 -0.447 -1 -1 V 54.027 c 0 -0.446 0.296 -0.839 0.726 -0.962 c 0.429 -0.122 0.889 0.056 1.124 0.435 l 7.59 12.229 V 54.027 c 0 -0.553 0.447 -1 1 -1 s 1 0.447 1 1 v 15.209 c 0 0.446 -0.296 0.839 -0.726 0.962 C 68.063 70.224 67.971 70.236 67.88 70.236 z" style="stroke: none; stroke-width: 1; stroke-dasharray: none; stroke-linecap: butt; stroke-linejoin: miter; stroke-miterlimit: 10; fill: rgb(0,0,0); fill-rule: nonzero; opacity: 1;" transform=" matrix(1 0 0 1 0 0) " stroke-linecap="round" />
	<path d="M 80.582 70.236 H 73.84 c -0.553 0 -1 -0.447 -1 -1 V 54.027 c 0 -0.553 0.447 -1 1 -1 h 6.742 c 0.553 0 1 0.447 1 1 s -0.447 1 -1 1 H 74.84 v 13.209 h 5.742 c 0.553 0 1 0.447 1 1 S 81.135 70.236 80.582 70.236 z" style="stroke: none; stroke-width: 1; stroke-dasharray: none; stroke-linecap: butt; stroke-linejoin: miter; stroke-miterlimit: 10; fill: rgb(0,0,0); fill-rule: nonzero; opacity: 1;" transform=" matrix(1 0 0 1 0 0) " stroke-linecap="round" />
	<path d="M 78.25 62.632 h -4.41 c -0.553 0 -1 -0.447 -1 -1 s 0.447 -1 1 -1 h 4.41 c 0.553 0 1 0.447 1 1 S 78.803 62.632 78.25 62.632 z" style="stroke: none; stroke-width: 1; stroke-dasharray: none; stroke-linecap: butt; stroke-linejoin: miter; stroke-miterlimit: 10; fill: rgb(0,0,0); fill-rule: nonzero; opacity: 1;" transform=" matrix(1 0 0 1 0 0) " stroke-linecap="round" />
	<path d="M 73.421 31.901 H 56.516 c -0.439 0 -0.828 -0.287 -0.956 -0.708 l -5.567 -18.2 h -5.134 c -0.552 0 -1 -0.448 -1 -1 s 0.448 -1 1 -1 h 5.875 c 0.439 0 0.828 0.287 0.956 0.708 l 5.567 18.2 h 15.501 l 4.721 -11.235 H 61.92 c -0.553 0 -1 -0.448 -1 -1 s 0.447 -1 1 -1 h 17.063 c 0.335 0 0.647 0.167 0.833 0.447 c 0.186 0.279 0.219 0.632 0.089 0.94 l -5.562 13.235 C 74.187 31.66 73.823 31.901 73.421 31.901 z" style="stroke: none; stroke-width: 1; stroke-dasharray: none; stroke-linecap: butt; stroke-linejoin: miter; stroke-miterlimit: 10; fill: rgb(0,0,0); fill-rule: nonzero; opacity: 1;" transform=" matrix(1 0 0 1 0 0) " stroke-linecap="round" />
	<path d="M 56.293 41.101 c -1.904 0 -3.454 -1.549 -3.454 -3.454 c 0 -1.904 1.55 -3.454 3.454 -3.454 s 3.453 1.549 3.453 3.454 C 59.746 39.552 58.197 41.101 56.293 41.101 z M 56.293 36.193 c -0.802 0 -1.454 0.652 -1.454 1.454 s 0.652 1.454 1.454 1.454 c 0.801 0 1.453 -0.652 1.453 -1.454 S 57.094 36.193 56.293 36.193 z" style="stroke: none; stroke-width: 1; stroke-dasharray: none; stroke-linecap: butt; stroke-linejoin: miter; stroke-miterlimit: 10; fill: rgb(0,0,0); fill-rule: nonzero; opacity: 1;" transform=" matrix(1 0 0 1 0 0) " stroke-linecap="round" />
	<path d="M 73.087 41.101 c -1.904 0 -3.453 -1.549 -3.453 -3.454 c 0 -1.904 1.549 -3.454 3.453 -3.454 s 3.454 1.549 3.454 3.454 C 76.541 39.552 74.991 41.101 73.087 41.101 z M 73.087 36.193 c -0.801 0 -1.453 0.652 -1.453 1.454 s 0.652 1.454 1.453 1.454 c 0.802 0 1.454 -0.652 1.454 -1.454 S 73.889 36.193 73.087 36.193 z" style="stroke: none; stroke-width: 1; stroke-dasharray: none; stroke-linecap: butt; stroke-linejoin: miter; stroke-miterlimit: 10; fill: rgb(0,0,0); fill-rule: nonzero; opacity: 1;" transform=" matrix(1 0 0 1 0 0) " stroke-linecap="round" />
	<path d="M 43.615 31.901 H 19.018 c -0.552 0 -1 -0.448 -1 -1 s 0.448 -1 1 -1 h 24.597 c 0.552 0 1 0.448 1 1 S 44.167 31.901 43.615 31.901 z" style="stroke: none; stroke-width: 1; stroke-dasharray: none; stroke-linecap: butt; stroke-linejoin: miter; stroke-miterlimit: 10; fill: rgb(0,0,0); fill-rule: nonzero; opacity: 1;" transform=" matrix(1 0 0 1 0 0) " stroke-linecap="round" />
	<path d="M 41.312 22.448 H 11.018 c -0.552 0 -1 -0.448 -1 -1 s 0.448 -1 1 -1 h 30.294 c 0.552 0 1 0.448 1 1 S 41.864 22.448 41.312 22.448 z" style="stroke: none; stroke-width: 1; stroke-dasharray: none; stroke-linecap: butt; stroke-linejoin: miter; stroke-miterlimit: 10; fill: rgb(0,0,0); fill-rule: nonzero; opacity: 1;" transform=" matrix(1 0 0 1 0 0) " stroke-linecap="round" />
</g>
</svg>